<svg version="1.2" xmlns="http://www.w3.org/2000/svg" viewBox="0 0 290 320" width="290" height="320">
	<style>
		.s0 { fill: #ed751b } 
		.s1 { fill: #032144 } 
	</style>
	<g id="Background">
		<path id="Path 1" class="s0" d="m167 215.52c-4.68 0.7-11.65 2-15.5 2.9-3.85 0.9-11.95 3.03-18 4.74-6.05 1.71-15.95 5.1-22 7.53-6.05 2.43-14.38 6.25-18.5 8.49-4.13 2.24-10.42 6.01-14 8.37-3.58 2.36-9.54 6.92-13.25 10.12-3.71 3.21-9.68 9.43-13.27 13.83-3.59 4.4-8.49 11.82-10.89 16.5-2.4 4.68-5.13 11.2-6.06 14.5-0.94 3.3-2.12 7.91-2.62 10.25-0.68 3.17-0.59 4.38 0.34 4.76 0.69 0.28 28.01 0.39 60.72 0.25l59.47-0.26c-8.48-6.07-13.41-9.96-16.44-12.57-3.03-2.61-7.6-7.37-10.16-10.59-2.56-3.21-5.94-8.54-7.5-11.84-2.38-5.03-2.84-7.29-2.84-14 0-7.16 0.34-8.63 3.29-14 1.81-3.3 4.52-7.35 6.03-9 1.5-1.65 5.2-5.08 8.21-7.63 3.01-2.55 8.62-6.55 12.47-8.9 3.85-2.34 11.28-6.06 16.5-8.26 5.22-2.2 11.3-4.58 13.5-5.29 2.89-0.93 3.31-1.27 1.5-1.23-1.37 0.04-6.32 0.63-11 1.33z"/>
		<path id="Path 2" class="s1" d="m32.85 5.75c-0.19 2.06-0.24 60.56-0.1 130l0.25 126.25c13.56-13.63 21.1-20.12 25.5-23.21 4.4-3.09 12.28-7.83 17.5-10.53 8.17-4.23 9.48-5.25 9.39-7.34-0.06-1.33-0.9-6.7-1.86-11.92-1.22-6.64-1.59-12.21-1.22-18.5 0.29-4.95 1.26-11.7 2.17-15 0.9-3.3 2.95-8.7 4.55-12 1.6-3.3 4.61-8.23 6.69-10.95 2.08-2.73 6.48-7.12 9.78-9.77 3.3-2.65 8.25-5.88 11-7.19 2.75-1.3 7.92-3.12 11.5-4.05 3.83-0.99 10.19-1.66 15.5-1.64 4.95 0.03 11.7 0.76 15 1.64 3.3 0.87 9.15 3.22 13 5.22 4.51 2.34 9.5 6.15 14.01 10.69 4.58 4.61 8.35 9.64 10.91 14.55 2.15 4.12 4.3 8.85 4.79 10.5 0.48 1.65 1.51 6.82 2.29 11.5 1.07 6.51 1.16 10.49 0.4 17-0.55 4.68-1.92 11.43-3.04 15-1.12 3.57-3.44 9.2-5.16 12.5-1.8 3.45-6.33 9.23-10.67 13.61-4.76 4.82-9.74 8.73-13.53 10.63-3.3 1.66-8.6 3.86-11.77 4.89-3.17 1.03-5.76 2.43-5.75 3.12 0.01 0.69 0.63 2.49 1.38 4 0.75 1.51 3.79 4.88 6.75 7.49 2.97 2.6 9.67 6.96 14.89 9.69 5.22 2.73 12.43 6.08 16 7.45l6.5 2.48c6.97-3.93 11.47-6.99 14.5-9.33 3.03-2.34 8.63-7.58 12.45-11.64 3.82-4.07 8.82-10.32 11.12-13.89 2.29-3.57 5.31-8.75 6.71-11.5 1.39-2.75 3.45-7.47 4.58-10.5 1.12-3.03 2.91-8.65 3.98-12.5 1.06-3.85 2.48-12.18 3.15-18.5 0.94-8.95 0.95-13.94 0.03-22.5-0.66-6.05-2-14.15-2.99-18-0.99-3.85-3.14-10.38-4.79-14.5-1.65-4.13-4.29-9.83-5.87-12.69-1.58-2.85-5.57-8.88-8.87-13.4-3.37-4.62-9.73-11.44-14.5-15.55-4.68-4.03-11.88-9.25-16-11.59-4.13-2.34-11.55-5.77-16.5-7.62-4.95-1.85-11.93-4.02-15.5-4.82-3.57-0.8-12.8-1.7-20.5-1.99-11.55-0.45-15.66-0.2-23.5 1.43-5.22 1.08-12.65 3.21-16.5 4.74-3.85 1.52-9.92 4.51-13.5 6.64-3.58 2.13-7.53 4.65-8.8 5.61l-2.29 1.74 0.09-99.5h-52.81z"/>
	</g>
</svg>